<svg width="60" height="60" viewBox="0 0 40 40" fill="none" xmlns="http://www.w3.org/2000/svg">
<rect width="40" height="40" rx="4" fill="#ECECEC"/>
<rect width="40" height="40" rx="4" fill="#ECECEC"/>
<rect width="40" height="40" rx="4" fill="#ECECEC"/>
<rect width="40" height="40" rx="4" fill="#ECECEC"/>
<path d="M27.0621 28.2183C25.1077 30.1726 20.1028 28.3363 15.8833 24.1167C11.6637 19.8972 9.82739 14.8923 11.7817 12.9379L13.0685 11.6512C13.9568 10.7629 15.4205 10.7863 16.3378 11.7036L18.3309 13.6967C19.2482 14.614 19.2717 16.0778 18.3834 16.9661L18.107 17.2425C17.6274 17.7221 17.5804 18.4958 18.0261 19.0359C18.456 19.5568 18.9194 20.0756 19.4219 20.5781C19.9244 21.0806 20.4432 21.544 20.9641 21.9739C21.5042 22.4196 22.2779 22.3726 22.7575 21.893L23.0339 21.6166C23.9222 20.7283 25.386 20.7518 26.3033 21.6691L28.2964 23.6622C29.2137 24.5795 29.2371 26.0432 28.3488 26.9315L27.0621 28.2183Z" stroke="#343D4C" stroke-width="1.5"/>
</svg>
