<svg width="60" height="60" viewBox="0 0 40 40" fill="none" xmlns="http://www.w3.org/2000/svg">
<rect width="40" height="40" rx="4" fill="#ECECEC"/>
<rect width="40" height="40" rx="4" fill="#ECECEC"/>
<rect width="40" height="40" rx="4" fill="#ECECEC"/>
<rect width="40" height="40" rx="4" fill="#ECECEC"/>
<path fill-rule="evenodd" clip-rule="evenodd" d="M27.0378 10.7201C26.0731 9.75945 24.5097 9.76004 23.5457 10.7214L16.0903 18.1583C15.494 18.753 15.1434 19.5492 15.108 20.3891L15.0018 22.9018C14.9535 24.046 15.8712 24.9998 17.0203 24.9999L19.4924 25C20.4 25 21.2692 24.6349 21.9029 23.9874L29.2984 16.408C30.2425 15.4434 30.2326 13.9015 29.2761 12.9491L27.0378 10.7201ZM24.4985 11.6702C24.9366 11.2332 25.6473 11.2329 26.0858 11.6696L28.3241 13.8986C28.7588 14.3315 28.7634 15.0324 28.3342 15.4708L26.8489 16.9884L23.0046 13.1601L24.4985 11.6702ZM22.0526 14.1096L17.043 19.1071C16.6853 19.4639 16.4749 19.9416 16.4536 20.4456L16.3475 22.9583C16.3314 23.3397 16.6373 23.6576 17.0203 23.6576L19.4924 23.6577C20.037 23.6578 20.5585 23.4387 20.9388 23.0502L25.9084 17.9493L22.0526 14.1096Z" fill="#343D4C"/>
<path d="M28 21V25C28 27.7614 25.7614 30 23 30H15C12.2386 30 10 27.7614 10 25V17C10 14.2386 12.2386 12 15 12H19" stroke="#343D4C" stroke-width="1.5" stroke-linecap="round"/>
</svg>
