<svg width="40" height="40" viewBox="0 0 40 40" fill="none" xmlns="http://www.w3.org/2000/svg">
<rect width="40" height="40" rx="4" fill="#ECECEC"/>
<rect width="40" height="40" rx="4" fill="#ECECEC"/>
<rect width="40" height="40" rx="4" fill="#ECECEC"/>
<rect width="40" height="40" rx="4" fill="#ECECEC"/>
<path d="M12.5677 20.6759L18.2474 26.6903C19.4313 27.944 21.4258 27.944 22.6097 26.6903L28.2894 20.6759C30.3797 18.4624 30.3797 14.8736 28.2894 12.6601C26.1991 10.4466 22.81 10.4466 20.7197 12.6601C20.5617 12.8275 20.2955 12.8275 20.1374 12.6601C18.0471 10.4466 14.658 10.4466 12.5677 12.6601C10.4774 14.8736 10.4774 18.4624 12.5677 20.6759Z" fill="#ECECEC"/>
<path d="M12.5677 20.6759L18.2474 26.6903C19.4313 27.944 21.4258 27.944 22.6097 26.6903L28.2894 20.6759C30.3797 18.4624 30.3797 14.8736 28.2894 12.6601C26.1991 10.4466 22.81 10.4466 20.7197 12.6601C20.5617 12.8275 20.2955 12.8275 20.1374 12.6601C18.0471 10.4466 14.658 10.4466 12.5677 12.6601C10.4774 14.8736 10.4774 18.4624 12.5677 20.6759Z" fill="#ECECEC"/>
<path d="M12.5677 20.6759L18.2474 26.6903C19.4313 27.944 21.4258 27.944 22.6097 26.6903L28.2894 20.6759C30.3797 18.4624 30.3797 14.8736 28.2894 12.6601C26.1991 10.4466 22.81 10.4466 20.7197 12.6601C20.5617 12.8275 20.2955 12.8275 20.1374 12.6601C18.0471 10.4466 14.658 10.4466 12.5677 12.6601C10.4774 14.8736 10.4774 18.4624 12.5677 20.6759Z" fill="#ECECEC"/>
<path d="M12.5677 20.6759L18.2474 26.6903C19.4313 27.944 21.4258 27.944 22.6097 26.6903L28.2894 20.6759C30.3797 18.4624 30.3797 14.8736 28.2894 12.6601C26.1991 10.4466 22.81 10.4466 20.7197 12.6601C20.5617 12.8275 20.2955 12.8275 20.1374 12.6601C18.0471 10.4466 14.658 10.4466 12.5677 12.6601C10.4774 14.8736 10.4774 18.4624 12.5677 20.6759Z" fill="#ECECEC"/>
<path d="M12.5677 20.6759L18.2474 26.6903C19.4313 27.944 21.4258 27.944 22.6097 26.6903L28.2894 20.6759C30.3797 18.4624 30.3797 14.8736 28.2894 12.6601C26.1991 10.4466 22.81 10.4466 20.7197 12.6601C20.5617 12.8275 20.2955 12.8275 20.1374 12.6601C18.0471 10.4466 14.658 10.4466 12.5677 12.6601C10.4774 14.8736 10.4774 18.4624 12.5677 20.6759Z" stroke="#343D4C" stroke-width="2"/>
</svg>
